# xmcd
#
# Track frame offsets:
#	150
#	13511
#	27319
#	40170
#	52868
#	67634
#	83403
#	96447
#	112262
#	128978
#	142844
#	157823
#
# Disc length: 2225 seconds
# Revision: 0
# Processed by: cddbd v1.5.2PL0 Copyright (c) Steve Scherf et al.
# Submitted via: dBpowerAMP V12.0
#
DISCID=8a08af0c
DTITLE=Claybank - Playing Hard To Forget
DYEAR=2016
DGENRE=Country
TTITLE0=How I Love You
TTITLE1=Demise Of Handsome Molly
TTITLE2=It Almost Feels Like Love
TTITLE3=A Little Bit Of You
TTITLE4=My Baby's Gone
TTITLE5=I'll Stick With The Old Stuff
TTITLE6=Up On Claybank
TTITLE7=Daddy Would Sing
TTITLE8=Foot Of The Phoenix
TTITLE9=I Believe
TTITLE10=Playing Hard To Forget
TTITLE11=On My Way Back To You
EXTD=
EXTT0=
EXTT1=
EXTT2=
EXTT3=
EXTT4=
EXTT5=
EXTT6=
EXTT7=
EXTT8=
EXTT9=
EXTT10=
EXTT11=
PLAYORDER=
